PathFileType	4	(X/Y/Z)	33_1_15_p1_0-230_filt_butterworth.trc
DataRate	CameraRate	NumFrames	NumMarkers	Units	OrigDataRate	OrigDataStartFrame	OrigNumFrames
60.0	60.0	6	27	m	60.0	115	230
Frame#	Time	RHip			RKnee			RAnkle			RBigToe			RSmallToe			RHeel			LHip			LKnee			LAnkle			LBigToe			LSmallToe			LHeel			Neck			Head			Nose			RShoulder			RElbow			RWrist			RThumb			RIndex			RPinky			LShoulder			LElbow			LWrist			LThumb			LIndex			LPinky			
		X1	Y1	Z1	X2	Y2	Z2	X3	Y3	Z3	X4	Y4	Z4	X5	Y5	Z5	X6	Y6	Z6	X7	Y7	Z7	X8	Y8	Z8	X9	Y9	Z9	X10	Y10	Z10	X11	Y11	Z11	X12	Y12	Z12	X13	Y13	Z13	X14	Y14	Z14	X15	Y15	Z15	X16	Y16	Z16	X17	Y17	Z17	X18	Y18	Z18	X19	Y19	Z19	X20	Y20	Z20	X21	Y21	Z21	X22	Y22	Z22	X23	Y23	Z23	X24	Y24	Z24	X25	Y25	Z25	X26	Y26	Z26	X27	Y27	Z27	
115	1.9166666666666667	0.29482726503022094	0.5926157504739603	0.6510318552613585	0.25526057053729934	0.14895301438036232	0.6323816573242795	0.24303442403316391	-0.25329525611269865	0.6834455288264846	0.25058286665894347	-0.2592855712961607	0.5105333291702097	0.30791078786059584	-0.2723495223811625	0.5553811345743368	0.22192106791443636	-0.33566674129249874	0.7349245977032433	0.07995040532568946	0.6010111286580062	0.6176229599999535	0.07688176761385636	0.14232191381840745	0.6790847151982674	0.08464732116844995	-0.3022410702722162	0.7153735154241062	0.10642538994117834	-0.26989908018252756	0.5162732734884952	0.054949924082937404	-0.28532156568355255	0.5544318527598474	0.0874405735861125	-0.3586563319896482	0.7534210498465762	0.22323931070692316	1.178621907528657	0.5103370374782388	0.25251391683003044	1.4220388506986712	0.42521905073788513	0.2601341654066854	1.2884823889616979	0.3913413779355678	0.3934640566287112	1.0885008680291561	0.5478421924883075	0.40390289513769606	0.8202086953837594	0.6597445558506785	0.39021666519476483	0.5572520581952634	0.6295710444852616	0.34401940957973776	0.4533098942251672	0.5832641248016417	0.36314184746018574	0.41083376460389415	0.6135748889824479	0.3786884130152919	0.4077860276409737	0.6352587141003573	0.050638465850468925	1.1187335070958693	0.5465364751349272	0.012560373292376404	0.8520131343287838	0.5583530481389765	0.03538741647421493	0.5859040972090875	0.5608874651779254	0.09534160397796623	0.49733805333752545	0.51114145474931	0.08052471436198066	0.4579909704829036	0.510075150275214	0.019799132293506543	0.4477920808170518	0.5504987488707689	
116	1.933333333333333	0.29643842160811196	0.5918910897181111	0.6558769343727875	0.25616973984579405	0.14893467096095314	0.632250806663636	0.243147599923053	-0.25334916187957346	0.6843959433967254	0.25126378918188697	-0.25876243862988985	0.5097811092548703	0.3078262641759427	-0.2725685147741922	0.5544420995849353	0.2214977966406045	-0.33458450491409963	0.7358559770207851	0.08103723087755038	0.600362794902097	0.6206676639090958	0.07855063554746146	0.14146565696206292	0.6794666660703971	0.08491944485370284	-0.301768401599571	0.7157066445587825	0.10683399363397586	-0.2705177403887179	0.517516937624913	0.05505895827387064	-0.2850570665255746	0.5542661142168307	0.08742647770336348	-0.35845957158155406	0.7532427742733471	0.22234977443525988	1.1765987546403427	0.5100226563929707	0.251948976968757	1.4214204836203115	0.42216770615140276	0.2615095375147079	1.2862981325152905	0.3876931413640509	0.3934212393196941	1.0880379635130504	0.5483033561663901	0.4053548975414574	0.8196288618748294	0.6608055792673028	0.39270173454290713	0.559322710424085	0.6272433784697713	0.3468740898886816	0.45232035134209314	0.5891219716878431	0.36775117730113216	0.41412857351537435	0.6131851510308552	0.38163166569748097	0.4083611301860121	0.6362115367741881	0.05061928190119879	1.1166299128056885	0.5414098142106837	0.011787155370703493	0.8523487430076802	0.55345485974388	0.042848186732424014	0.587421986361532	0.5521281854105866	0.10013646917759483	0.5003330679414412	0.5055058420397931	0.08870922998282398	0.46124947607323236	0.49861305339739104	0.028770522109647527	0.44720488468879255	0.5424250401512708	
117	1.95	0.29805565253077076	0.5912102371881218	0.6608439494703408	0.257090808794073	0.14938071735221195	0.6324500088463909	0.24321581689957728	-0.25332739883548033	0.6851416898948309	0.25160308697754297	-0.2582787108420849	0.5090393465745078	0.3077901307848256	-0.27307481941892836	0.5537371030262502	0.22096424922916805	-0.3339668367404117	0.7370460133365477	0.08189942262659584	0.600143651977114	0.6231884574168418	0.08026168916221112	0.14104023651887634	0.6797320289149922	0.08514605852483585	-0.30122132403421337	0.7160081411208544	0.10711282444982337	-0.27092598333282764	0.5182100163268234	0.055155776646530784	-0.2845367756061066	0.5541345216097956	0.0873586317074796	-0.3582020302787863	0.752901867910176	0.2215768087901454	1.1745873883754063	0.5100561106338584	0.2512464879361677	1.4205529012518423	0.4188785635237656	0.2620179210504095	1.2840218479069054	0.38459942982374296	0.3931086369942236	1.0876109374037812	0.5494431012842537	0.4067719708791155	0.8182784879856763	0.6644189272702375	0.3958843466966323	0.5612852019028662	0.6257365977037508	0.3512103802770903	0.4510640298375201	0.5968689945478236	0.37389035863376935	0.41784621948150547	0.6129880761445714	0.3844610458126362	0.4085155197979769	0.6379584011888837	0.05072134626582618	1.1142649006312726	0.5370864263919458	0.009734345977583566	0.8528785132733743	0.5476813987106179	0.05013801423533329	0.5898612849171339	0.5403720011960875	0.10348783456263094	0.5022403059302003	0.502319997147781	0.09372599486786044	0.46303097510995467	0.4908717482342674	0.03880316742901308	0.4472965151497967	0.5319611608398827	
118	1.9666666666666663	0.2995090490648232	0.5906226552474435	0.6659660329101158	0.25797831519606906	0.15007196675238182	0.632983333320241	0.24324232570788215	-0.2532007291681828	0.6856378430827401	0.25176317748560345	-0.25820861054251953	0.5089485876444475	0.3078105000099584	-0.2736913040282643	0.5530970421327501	0.22034553090103348	-0.3338192413593076	0.7384463928517876	0.08246019329361688	0.6002091043429033	0.6256404141987755	0.08193524278026605	0.14106528243113348	0.6798590293487989	0.08531960013726694	-0.3006526181447158	0.7162535007803392	0.10736661636173148	-0.27121025227601947	0.5186454195524868	0.055378108797440734	-0.28358172460163106	0.5536617190624697	0.08724225626683374	-0.357886766491083	0.7523705340992315	0.22097591170929656	1.1729748017719073	0.5100685718593886	0.2504599019687495	1.419503127145109	0.4155332873439856	0.2615872751331579	1.2818565441077148	0.38234226956937556	0.39235549708814255	1.08749833185371	0.5512641352850837	0.40795446353875675	0.8166467844505159	0.6701944205111507	0.39956402213363473	0.5629462511654748	0.6251499750811165	0.35644441285473766	0.45025303164218655	0.6045016442062549	0.3805560219932938	0.42189892660406797	0.6124709498768605	0.3873476258375956	0.4086446575928061	0.6404725983646631	0.05093029625457028	1.1117565400494611	0.5342046299029489	0.0071728251260463035	0.853312665377029	0.5417796103034931	0.05709752091461177	0.5930292347003017	0.5273976762861233	0.10756292468921676	0.5043207106794906	0.4985971165147548	0.09672142671213643	0.4639157015490676	0.4861291491771646	0.049809505944199625	0.4489697022279927	0.5190315640097324	
119	1.9833333333333327	0.30067052734290994	0.5902895042325885	0.6711586295894316	0.25882282863196293	0.15093060025763932	0.6337469194006764	0.2432410661677599	-0.2529770204298639	0.6858394651632586	0.2520894194076708	-0.2587090738038634	0.5097892345755355	0.30798772331144747	-0.27434985356251973	0.5526337271953025	0.21968825732588176	-0.33406273020431493	0.7399638998733031	0.08279793439467181	0.6004697963744248	0.6282523641394715	0.08361303746093462	0.14161379107334904	0.6796709700306167	0.08544090546647849	-0.30010034617751424	0.7164498949252828	0.1076478259567496	-0.2716531622187738	0.5194157030544895	0.055974885528916496	-0.2820929601531445	0.5524125671376556	0.08708287067929127	-0.3575198943439427	0.75161847463767	0.22057802948245708	1.172019914199372	0.50992070222607	0.2497425368802342	1.4184561766607375	0.4122636942409609	0.2603155822544409	1.2800224525896726	0.3806641360552655	0.3911293627791468	1.087919357709457	0.5535097381390812	0.4088554232180286	0.815442829659736	0.676893096570448	0.40388220077736237	0.5643247796320456	0.6250106978861438	0.36216466584425944	0.4501812175081791	0.610368574576019	0.3872714054124099	0.42611684798422256	0.6107837868153736	0.39078607149133715	0.4091824665777385	0.6438066750960515	0.05117475539346337	1.1093333119374433	0.5329604668069663	0.00474735543926055	0.8532924104562017	0.5370148261142211	0.0632778468132566	0.5964097568716231	0.5153938822529311	0.11375201846397087	0.507861535350481	0.49177717498625123	0.09933987330139261	0.4649006327996081	0.4818850810499165	0.06100326985823386	0.4528370465907844	0.5041521604675456	
120	2.0	0.30152014111777514	0.5903797151492064	0.6761710727461772	0.2596402865333444	0.15189910690962177	0.6346555609229991	0.2432204600373697	-0.2527208602341975	0.6857185116642468	0.25283050379687777	-0.2597749477244333	0.511584004111554	0.3084061100878326	-0.2751222242666545	0.5527745614700789	0.2190637374375496	-0.33454482777302225	0.7414490729437303	0.08305382136281732	0.6009385455869894	0.6308275244451481	0.08537610627101785	0.14278402401725468	0.678961456089913	0.08551179930718544	-0.2995877765681222	0.7166114659647698	0.10796929372056868	-0.27249053896011366	0.5209639995818398	0.05716203160708179	-0.2801713278559481	0.5502841988048998	0.08688268674465387	-0.35710380648580986	0.7506556391845575	0.22033839152713014	1.1717689122001678	0.5096715442558354	0.24925497397976365	1.4175511609287499	0.4093048478072514	0.2583175947738644	1.2785882181254875	0.3789243909118336	0.3895539062179777	1.0889016733571915	0.5558525099576546	0.4095469690336598	0.8154334803214573	0.6826830744344352	0.40903143456245544	0.5656728604992963	0.6244448887664794	0.3680119545622678	0.4506840767646184	0.6136305459771318	0.39401176670776317	0.43020232297375194	0.6073143761335806	0.3951593486675268	0.410223579646901	0.6481476562840217	0.05140329804098152	1.1073291049428942	0.5330678134962737	0.0029821129391050163	0.8525029093630518	0.5340987377189326	0.06819144017709944	0.5992383512621654	0.5057651386153816	0.12191744267655699	0.5128109014806808	0.48156461047458193	0.10278921577236787	0.46681269139379444	0.4757817586855595	0.07110199842174279	0.4584332134209258	0.4885612124881644	
